<svg width="186" height="118" viewBox="0 0 186 118" fill="none" xmlns="http://www.w3.org/2000/svg">
<g filter="url(#filter0_dd_346_130)">
<rect x="8" y="6" width="165" height="97" rx="10" fill="white"/>
</g>
<path d="M40.8934 34.5V30.756H48.3814V57H44.2414V34.5H40.8934ZM56.2874 51.42C58.5914 49.428 60.4034 47.796 61.7234 46.524C63.0674 45.228 64.1834 43.884 65.0714 42.492C65.9594 41.1 66.4034 39.708 66.4034 38.316C66.4034 36.876 66.0554 35.748 65.3594 34.932C64.6874 34.116 63.6194 33.708 62.1554 33.708C60.7394 33.708 59.6354 34.164 58.8434 35.076C58.0754 35.964 57.6674 37.164 57.6194 38.676H53.6594C53.7314 35.94 54.5474 33.852 56.1074 32.412C57.6914 30.948 59.6954 30.216 62.1194 30.216C64.7354 30.216 66.7754 30.936 68.2394 32.376C69.7274 33.816 70.4714 35.736 70.4714 38.136C70.4714 39.864 70.0274 41.532 69.1394 43.14C68.2754 44.724 67.2314 46.152 66.0074 47.424C64.8074 48.672 63.2714 50.124 61.3994 51.78L59.7794 53.22H71.1914V56.64H53.6954V53.652L56.2874 51.42ZM74.7967 43.536C74.7967 39.384 75.4927 36.144 76.8847 33.816C78.3007 31.464 80.7247 30.288 84.1567 30.288C87.5887 30.288 90.0007 31.464 91.3927 33.816C92.8087 36.144 93.5167 39.384 93.5167 43.536C93.5167 47.736 92.8087 51.024 91.3927 53.4C90.0007 55.752 87.5887 56.928 84.1567 56.928C80.7247 56.928 78.3007 55.752 76.8847 53.4C75.4927 51.024 74.7967 47.736 74.7967 43.536ZM89.4847 43.536C89.4847 41.592 89.3527 39.948 89.0887 38.604C88.8487 37.26 88.3447 36.168 87.5767 35.328C86.8087 34.464 85.6687 34.032 84.1567 34.032C82.6447 34.032 81.5047 34.464 80.7367 35.328C79.9687 36.168 79.4527 37.26 79.1887 38.604C78.9487 39.948 78.8287 41.592 78.8287 43.536C78.8287 45.552 78.9487 47.244 79.1887 48.612C79.4287 49.98 79.9327 51.084 80.7007 51.924C81.4927 52.764 82.6447 53.184 84.1567 53.184C85.6687 53.184 86.8087 52.764 87.5767 51.924C88.3687 51.084 88.8847 49.98 89.1247 48.612C89.3647 47.244 89.4847 45.552 89.4847 43.536ZM97.8592 43.536C97.8592 39.384 98.5552 36.144 99.9472 33.816C101.363 31.464 103.787 30.288 107.219 30.288C110.651 30.288 113.063 31.464 114.455 33.816C115.871 36.144 116.579 39.384 116.579 43.536C116.579 47.736 115.871 51.024 114.455 53.4C113.063 55.752 110.651 56.928 107.219 56.928C103.787 56.928 101.363 55.752 99.9472 53.4C98.5552 51.024 97.8592 47.736 97.8592 43.536ZM112.547 43.536C112.547 41.592 112.415 39.948 112.151 38.604C111.911 37.26 111.407 36.168 110.639 35.328C109.871 34.464 108.731 34.032 107.219 34.032C105.707 34.032 104.567 34.464 103.799 35.328C103.031 36.168 102.515 37.26 102.251 38.604C102.011 39.948 101.891 41.592 101.891 43.536C101.891 45.552 102.011 47.244 102.251 48.612C102.491 49.98 102.995 51.084 103.763 51.924C104.555 52.764 105.707 53.184 107.219 53.184C108.731 53.184 109.871 52.764 110.639 51.924C111.431 51.084 111.947 49.98 112.187 48.612C112.427 47.244 112.547 45.552 112.547 43.536ZM140.794 45.732H133.522V53.184H129.706V45.732H122.434V42.276H129.706V34.824H133.522V42.276H140.794V45.732Z" fill="black"/>
<path d="M41.9592 77.1C40.4712 77.1 39.2592 78.312 39.2592 79.8C39.2592 81.288 40.4712 82.5 41.9592 82.5H46.1592V84H41.9592C39.6432 84 37.7592 82.116 37.7592 79.8C37.7592 77.484 39.6432 75.6 41.9592 75.6H46.1592V77.1H41.9592ZM49.8797 82.5L54.2837 82.512V84.012H50.0237C49.6037 84.012 49.2077 83.916 48.8477 83.736C48.3197 83.472 47.8877 83.04 47.6357 82.512C47.4557 82.152 47.3597 81.756 47.3597 81.336V75.612H48.8597V81.48C48.9317 82.008 49.3517 82.428 49.8797 82.5ZM62.8008 82.5L63.5688 84H61.8888L61.1208 82.5L59.2848 78.9L57.4488 82.5L56.6808 84H55.0008L55.7688 82.5L59.2848 75.6L62.8008 82.5ZM71.581 77.916L70.081 77.928V77.88C70.081 77.46 69.733 77.112 69.313 77.112H65.905C65.485 77.112 65.137 77.46 65.137 77.88V77.928C65.137 78.348 65.485 78.696 65.905 78.696H68.929C69.709 78.696 70.405 79.032 70.885 79.56C70.921 79.596 70.945 79.632 70.981 79.668C71.353 80.124 71.581 80.712 71.581 81.348C71.581 82.812 70.393 84 68.929 84H66.301C64.837 84 63.649 82.812 63.649 81.348H65.149C65.149 81.984 65.665 82.5 66.301 82.5H68.929C69.565 82.5 70.093 81.984 70.093 81.348C70.093 80.712 69.565 80.196 68.929 80.196H65.905C65.293 80.196 64.741 79.956 64.333 79.56C64.225 79.452 64.129 79.332 64.045 79.2C63.793 78.84 63.649 78.396 63.649 77.916V77.868C63.649 76.62 64.657 75.6 65.905 75.6H69.313C70.561 75.6 71.581 76.62 71.581 77.868V77.916ZM80.7216 77.916L79.2216 77.928V77.88C79.2216 77.46 78.8736 77.112 78.4536 77.112H75.0456C74.6256 77.112 74.2776 77.46 74.2776 77.88V77.928C74.2776 78.348 74.6256 78.696 75.0456 78.696H78.0696C78.8496 78.696 79.5456 79.032 80.0256 79.56C80.0616 79.596 80.0856 79.632 80.1216 79.668C80.4936 80.124 80.7216 80.712 80.7216 81.348C80.7216 82.812 79.5336 84 78.0696 84H75.4416C73.9776 84 72.7896 82.812 72.7896 81.348H74.2896C74.2896 81.984 74.8056 82.5 75.4416 82.5H78.0696C78.7056 82.5 79.2336 81.984 79.2336 81.348C79.2336 80.712 78.7056 80.196 78.0696 80.196H75.0456C74.4336 80.196 73.8816 79.956 73.4736 79.56C73.3656 79.452 73.2696 79.332 73.1856 79.2C72.9336 78.84 72.7896 78.396 72.7896 77.916V77.868C72.7896 76.62 73.7976 75.6 75.0456 75.6H78.4536C79.7016 75.6 80.7216 76.62 80.7216 77.868V77.916ZM84.1863 77.1C83.7663 77.1 83.4183 77.448 83.4183 77.868V78.648H88.8183V80.148H83.4183V81.732C83.4183 82.152 83.7663 82.5 84.1863 82.5H90.3183V84H84.1863C82.9383 84 81.9303 82.98 81.9303 81.732V77.868C81.9303 76.62 82.9383 75.6 84.1863 75.6H90.3183V77.1H84.1863ZM99.4599 77.916L97.9599 77.928V77.88C97.9599 77.46 97.6119 77.112 97.1919 77.112H93.7839C93.3639 77.112 93.0159 77.46 93.0159 77.88V77.928C93.0159 78.348 93.3639 78.696 93.7839 78.696H96.8079C97.5879 78.696 98.2839 79.032 98.7639 79.56C98.7999 79.596 98.8239 79.632 98.8599 79.668C99.2319 80.124 99.4599 80.712 99.4599 81.348C99.4599 82.812 98.2719 84 96.8079 84H94.1799C92.7159 84 91.5279 82.812 91.5279 81.348H93.0279C93.0279 81.984 93.5439 82.5 94.1799 82.5H96.8079C97.4439 82.5 97.9719 81.984 97.9719 81.348C97.9719 80.712 97.4439 80.196 96.8079 80.196H93.7839C93.1719 80.196 92.6199 79.956 92.2119 79.56C92.1039 79.452 92.0079 79.332 91.9239 79.2C91.6719 78.84 91.5279 78.396 91.5279 77.916V77.868C91.5279 76.62 92.5359 75.6 93.7839 75.6H97.1919C98.4399 75.6 99.4599 76.62 99.4599 77.868V77.916ZM106.504 75.6L110.692 75.612C113.008 75.612 114.892 77.484 114.892 79.8C114.892 80.832 114.52 81.78 113.896 82.512C113.824 82.596 113.74 82.68 113.656 82.764C112.9 83.532 111.856 84 110.704 84H106.504V75.6ZM107.992 77.112V82.512H110.692C112.18 82.512 113.392 81.3 113.392 79.812C113.392 78.324 112.18 77.112 110.692 77.112H107.992ZM120.014 75.6C122.33 75.6 124.214 77.484 124.214 79.8C124.214 82.116 122.33 84 120.014 84C117.698 84 115.814 82.116 115.814 79.8C115.814 77.484 117.698 75.6 120.014 75.6ZM120.014 82.5C121.502 82.5 122.714 81.288 122.714 79.8C122.714 78.312 121.502 77.1 120.014 77.1C118.526 77.1 117.314 78.312 117.314 79.8C117.314 81.288 118.526 82.5 120.014 82.5ZM132.025 75.6L133.525 75.612V84.012L132.025 82.86L126.625 78.696V84.012H125.125V75.636L126.625 76.788L132.025 80.952V75.6ZM136.991 77.1C136.571 77.1 136.223 77.448 136.223 77.868V78.648H141.623V80.148H136.223V81.732C136.223 82.152 136.571 82.5 136.991 82.5H143.123V84H136.991C135.743 84 134.735 82.98 134.735 81.732V77.868C134.735 76.62 135.743 75.6 136.991 75.6H143.123V77.1H136.991Z" fill="black"/>
<defs>
<filter id="filter0_dd_346_130" x="0" y="0" width="186" height="118" filterUnits="userSpaceOnUse" color-interpolation-filters="sRGB">
<feFlood flood-opacity="0" result="BackgroundImageFix"/>
<feColorMatrix in="SourceAlpha" type="matrix" values="0 0 0 0 0 0 0 0 0 0 0 0 0 0 0 0 0 0 127 0" result="hardAlpha"/>
<feMorphology radius="2" operator="dilate" in="SourceAlpha" result="effect1_dropShadow_346_130"/>
<feOffset dy="2"/>
<feGaussianBlur stdDeviation="3"/>
<feColorMatrix type="matrix" values="0 0 0 0 0 0 0 0 0 0 0 0 0 0 0 0 0 0 0.15 0"/>
<feBlend mode="normal" in2="BackgroundImageFix" result="effect1_dropShadow_346_130"/>
<feColorMatrix in="SourceAlpha" type="matrix" values="0 0 0 0 0 0 0 0 0 0 0 0 0 0 0 0 0 0 127 0" result="hardAlpha"/>
<feOffset dx="4" dy="6"/>
<feGaussianBlur stdDeviation="4.5"/>
<feColorMatrix type="matrix" values="0 0 0 0 0 0 0 0 0 0 0 0 0 0 0 0 0 0 0.3 0"/>
<feBlend mode="normal" in2="effect1_dropShadow_346_130" result="effect2_dropShadow_346_130"/>
<feBlend mode="normal" in="SourceGraphic" in2="effect2_dropShadow_346_130" result="shape"/>
</filter>
</defs>
</svg>
