<svg width="161" height="118" viewBox="0 0 161 118" fill="none" xmlns="http://www.w3.org/2000/svg">
<g filter="url(#filter0_dd_346_137)">
<rect x="8" y="6" width="140" height="97" rx="10" fill="white"/>
</g>
<path d="M37.4504 52.575C39.6904 50.6383 41.452 49.0517 42.7354 47.815C44.042 46.555 45.127 45.2483 45.9904 43.895C46.8537 42.5417 47.2854 41.1883 47.2854 39.835C47.2854 38.435 46.947 37.3383 46.2704 36.545C45.617 35.7517 44.5787 35.355 43.1554 35.355C41.7787 35.355 40.7054 35.7983 39.9354 36.685C39.1887 37.5483 38.792 38.715 38.7454 40.185H34.8954C34.9654 37.525 35.7587 35.495 37.2754 34.095C38.8154 32.6717 40.7637 31.96 43.1204 31.96C45.6637 31.96 47.647 32.66 49.0704 34.06C50.517 35.46 51.2404 37.3267 51.2404 39.66C51.2404 41.34 50.8087 42.9617 49.9454 44.525C49.1054 46.065 48.0904 47.4533 46.9004 48.69C45.7337 49.9033 44.2404 51.315 42.4204 52.925L40.8454 54.325H51.9404V57.65H34.9304V54.745L37.4504 52.575ZM55.4455 44.91C55.4455 40.8733 56.1222 37.7233 57.4755 35.46C58.8522 33.1733 61.2089 32.03 64.5455 32.03C67.8822 32.03 70.2272 33.1733 71.5805 35.46C72.9572 37.7233 73.6455 40.8733 73.6455 44.91C73.6455 48.9933 72.9572 52.19 71.5805 54.5C70.2272 56.7867 67.8822 57.93 64.5455 57.93C61.2089 57.93 58.8522 56.7867 57.4755 54.5C56.1222 52.19 55.4455 48.9933 55.4455 44.91ZM69.7255 44.91C69.7255 43.02 69.5972 41.4217 69.3405 40.115C69.1072 38.8083 68.6172 37.7467 67.8705 36.93C67.1239 36.09 66.0155 35.67 64.5455 35.67C63.0755 35.67 61.9672 36.09 61.2205 36.93C60.4739 37.7467 59.9722 38.8083 59.7155 40.115C59.4822 41.4217 59.3655 43.02 59.3655 44.91C59.3655 46.87 59.4822 48.515 59.7155 49.845C59.9489 51.175 60.4389 52.2483 61.1855 53.065C61.9555 53.8817 63.0755 54.29 64.5455 54.29C66.0155 54.29 67.1239 53.8817 67.8705 53.065C68.6405 52.2483 69.1422 51.175 69.3755 49.845C69.6089 48.515 69.7255 46.87 69.7255 44.91ZM77.8674 44.91C77.8674 40.8733 78.5441 37.7233 79.8974 35.46C81.2741 33.1733 83.6308 32.03 86.9674 32.03C90.3041 32.03 92.6491 33.1733 94.0024 35.46C95.3791 37.7233 96.0674 40.8733 96.0674 44.91C96.0674 48.9933 95.3791 52.19 94.0024 54.5C92.6491 56.7867 90.3041 57.93 86.9674 57.93C83.6308 57.93 81.2741 56.7867 79.8974 54.5C78.5441 52.19 77.8674 48.9933 77.8674 44.91ZM92.1474 44.91C92.1474 43.02 92.0191 41.4217 91.7624 40.115C91.5291 38.8083 91.0391 37.7467 90.2924 36.93C89.5458 36.09 88.4374 35.67 86.9674 35.67C85.4974 35.67 84.3891 36.09 83.6424 36.93C82.8958 37.7467 82.3941 38.8083 82.1374 40.115C81.9041 41.4217 81.7874 43.02 81.7874 44.91C81.7874 46.87 81.9041 48.515 82.1374 49.845C82.3708 51.175 82.8608 52.2483 83.6074 53.065C84.3774 53.8817 85.4974 54.29 86.9674 54.29C88.4374 54.29 89.5458 53.8817 90.2924 53.065C91.0624 52.2483 91.5641 51.175 91.7974 49.845C92.0308 48.515 92.1474 46.87 92.1474 44.91ZM119.609 47.045H112.539V54.29H108.829V47.045H101.759V43.685H108.829V36.44H112.539V43.685H119.609V47.045Z" fill="black"/>
<path d="M39.0795 78.888L37.0795 78.904V78.84C37.0795 78.28 36.6155 77.816 36.0555 77.816H31.5115C30.9515 77.816 30.4875 78.28 30.4875 78.84V78.904C30.4875 79.464 30.9515 79.928 31.5115 79.928H35.5435C36.5835 79.928 37.5115 80.376 38.1515 81.08C38.1995 81.128 38.2315 81.176 38.2795 81.224C38.7755 81.832 39.0795 82.616 39.0795 83.464C39.0795 85.416 37.4955 87 35.5435 87H32.0395C30.0875 87 28.5035 85.416 28.5035 83.464H30.5035C30.5035 84.312 31.1915 85 32.0395 85H35.5435C36.3915 85 37.0955 84.312 37.0955 83.464C37.0955 82.616 36.3915 81.928 35.5435 81.928H31.5115C30.6955 81.928 29.9595 81.608 29.4155 81.08C29.2715 80.936 29.1435 80.776 29.0315 80.6C28.6955 80.12 28.5035 79.528 28.5035 78.888V78.824C28.5035 77.16 29.8475 75.8 31.5115 75.8H36.0555C37.7195 75.8 39.0795 77.16 39.0795 78.824V78.888ZM40.1438 75.816H51.3278V77.816H46.7358V87.016H44.7358V77.816H40.1438V75.816ZM62.1406 75.8H64.1406V81.4C64.1406 84.488 61.6286 87 58.5406 87C55.4526 87 52.9406 84.488 52.9406 81.4V75.8H54.9406V81.4C54.9406 83.384 56.5566 85 58.5406 85C60.5246 85 62.1406 83.384 62.1406 81.4V75.8ZM71.3375 75.8L71.3215 75.816C74.4095 75.816 76.9215 78.312 76.9215 81.4C76.9215 82.776 76.4255 84.04 75.5935 85.016C75.4975 85.128 75.3855 85.24 75.2735 85.352C74.2655 86.376 72.8735 87 71.3375 87H65.7375V75.8H71.3375ZM71.3215 85.016C73.3055 85.016 74.9215 83.4 74.9215 81.416C74.9215 79.432 73.3055 77.816 71.3215 77.816H67.7215V85.016H71.3215ZM81.5584 77.8C80.9984 77.8 80.5344 78.264 80.5344 78.824V79.864H87.7344V81.864H80.5344V83.976C80.5344 84.536 80.9984 85 81.5584 85H89.7344V87H81.5584C79.8944 87 78.5504 85.64 78.5504 83.976V78.824C78.5504 77.16 79.8944 75.8 81.5584 75.8H89.7344V77.8H81.5584ZM100.531 75.8L102.531 75.816V87.016L100.531 85.48L93.3313 79.928V87.016H91.3313V75.848L93.3313 77.384L100.531 82.936V75.8ZM104.128 75.816H115.312V77.816H110.72V87.016H108.72V77.816H104.128V75.816ZM127.517 78.888L125.517 78.904V78.84C125.517 78.28 125.053 77.816 124.493 77.816H119.949C119.389 77.816 118.925 78.28 118.925 78.84V78.904C118.925 79.464 119.389 79.928 119.949 79.928H123.981C125.021 79.928 125.949 80.376 126.589 81.08C126.637 81.128 126.669 81.176 126.717 81.224C127.213 81.832 127.517 82.616 127.517 83.464C127.517 85.416 125.933 87 123.981 87H120.477C118.525 87 116.941 85.416 116.941 83.464H118.941C118.941 84.312 119.629 85 120.477 85H123.981C124.829 85 125.533 84.312 125.533 83.464C125.533 82.616 124.829 81.928 123.981 81.928H119.949C119.133 81.928 118.397 81.608 117.853 81.08C117.709 80.936 117.581 80.776 117.469 80.6C117.133 80.12 116.941 79.528 116.941 78.888V78.824C116.941 77.16 118.285 75.8 119.949 75.8H124.493C126.157 75.8 127.517 77.16 127.517 78.824V78.888Z" fill="black"/>
<defs>
<filter id="filter0_dd_346_137" x="0" y="0" width="161" height="118" filterUnits="userSpaceOnUse" color-interpolation-filters="sRGB">
<feFlood flood-opacity="0" result="BackgroundImageFix"/>
<feColorMatrix in="SourceAlpha" type="matrix" values="0 0 0 0 0 0 0 0 0 0 0 0 0 0 0 0 0 0 127 0" result="hardAlpha"/>
<feMorphology radius="2" operator="dilate" in="SourceAlpha" result="effect1_dropShadow_346_137"/>
<feOffset dy="2"/>
<feGaussianBlur stdDeviation="3"/>
<feColorMatrix type="matrix" values="0 0 0 0 0 0 0 0 0 0 0 0 0 0 0 0 0 0 0.15 0"/>
<feBlend mode="normal" in2="BackgroundImageFix" result="effect1_dropShadow_346_137"/>
<feColorMatrix in="SourceAlpha" type="matrix" values="0 0 0 0 0 0 0 0 0 0 0 0 0 0 0 0 0 0 127 0" result="hardAlpha"/>
<feOffset dx="4" dy="6"/>
<feGaussianBlur stdDeviation="4.5"/>
<feColorMatrix type="matrix" values="0 0 0 0 0 0 0 0 0 0 0 0 0 0 0 0 0 0 0.3 0"/>
<feBlend mode="normal" in2="effect1_dropShadow_346_137" result="effect2_dropShadow_346_137"/>
<feBlend mode="normal" in="SourceGraphic" in2="effect2_dropShadow_346_137" result="shape"/>
</filter>
</defs>
</svg>
